<mxfile host="Electron" modified="2024-07-03T00:32:21.690Z" agent="Mozilla/5.0 (Windows NT 10.0; Win64; x64) AppleWebKit/537.36 (KHTML, like Gecko) draw.io/24.5.3 Chrome/124.0.6367.207 Electron/30.0.6 Safari/537.36" etag="2RpGpQQgTZCm3itOqeHf" version="24.5.3" type="device">
  <diagram name="Page-1" id="MKrvI0lvzUawxsQWwvnW">
    <mxGraphModel dx="683" dy="399" grid="1" gridSize="10" guides="1" tooltips="1" connect="1" arrows="1" fold="1" page="1" pageScale="1" pageWidth="850" pageHeight="1100" math="0" shadow="0">
      <root>
        <mxCell id="0" />
        <mxCell id="1" parent="0" />
        <mxCell id="cf-76Xh3B5X5lazb63aW-17" style="edgeStyle=orthogonalEdgeStyle;rounded=0;orthogonalLoop=1;jettySize=auto;html=1;exitX=0.5;exitY=1;exitDx=0;exitDy=0;startArrow=classic;startFill=1;" edge="1" parent="1" source="cf-76Xh3B5X5lazb63aW-1" target="cf-76Xh3B5X5lazb63aW-2">
          <mxGeometry relative="1" as="geometry" />
        </mxCell>
        <mxCell id="cf-76Xh3B5X5lazb63aW-1" value="MenuScene" style="rounded=0;whiteSpace=wrap;html=1;" vertex="1" parent="1">
          <mxGeometry x="80" y="160" width="80" height="40" as="geometry" />
        </mxCell>
        <mxCell id="cf-76Xh3B5X5lazb63aW-2" value="GameScene" style="rounded=0;whiteSpace=wrap;html=1;" vertex="1" parent="1">
          <mxGeometry x="80" y="560" width="80" height="40" as="geometry" />
        </mxCell>
        <mxCell id="cf-76Xh3B5X5lazb63aW-3" value="AppState" style="text;html=1;align=center;verticalAlign=middle;whiteSpace=wrap;rounded=0;" vertex="1" parent="1">
          <mxGeometry x="80" y="80" width="80" height="40" as="geometry" />
        </mxCell>
        <mxCell id="cf-76Xh3B5X5lazb63aW-4" value="MenuState" style="text;html=1;align=center;verticalAlign=middle;whiteSpace=wrap;rounded=0;" vertex="1" parent="1">
          <mxGeometry x="200" y="80" width="80" height="40" as="geometry" />
        </mxCell>
        <mxCell id="cf-76Xh3B5X5lazb63aW-20" style="edgeStyle=orthogonalEdgeStyle;rounded=0;orthogonalLoop=1;jettySize=auto;html=1;exitX=0.25;exitY=1;exitDx=0;exitDy=0;entryX=0.25;entryY=0;entryDx=0;entryDy=0;startArrow=classic;startFill=1;" edge="1" parent="1" source="cf-76Xh3B5X5lazb63aW-5" target="cf-76Xh3B5X5lazb63aW-6">
          <mxGeometry relative="1" as="geometry" />
        </mxCell>
        <mxCell id="cf-76Xh3B5X5lazb63aW-21" style="edgeStyle=orthogonalEdgeStyle;rounded=0;orthogonalLoop=1;jettySize=auto;html=1;exitX=0.5;exitY=1;exitDx=0;exitDy=0;entryX=1;entryY=0.5;entryDx=0;entryDy=0;startArrow=classic;startFill=1;" edge="1" parent="1" source="cf-76Xh3B5X5lazb63aW-5" target="cf-76Xh3B5X5lazb63aW-13">
          <mxGeometry relative="1" as="geometry">
            <Array as="points">
              <mxPoint x="240" y="230" />
              <mxPoint x="290" y="230" />
              <mxPoint x="290" y="340" />
            </Array>
          </mxGeometry>
        </mxCell>
        <mxCell id="cf-76Xh3B5X5lazb63aW-22" style="edgeStyle=orthogonalEdgeStyle;rounded=0;orthogonalLoop=1;jettySize=auto;html=1;exitX=0.75;exitY=1;exitDx=0;exitDy=0;startArrow=classic;startFill=1;entryX=1;entryY=0.5;entryDx=0;entryDy=0;" edge="1" parent="1" source="cf-76Xh3B5X5lazb63aW-5" target="cf-76Xh3B5X5lazb63aW-14">
          <mxGeometry relative="1" as="geometry">
            <Array as="points">
              <mxPoint x="260" y="220" />
              <mxPoint x="300" y="220" />
              <mxPoint x="300" y="420" />
            </Array>
          </mxGeometry>
        </mxCell>
        <mxCell id="cf-76Xh3B5X5lazb63aW-5" value="MainMenu" style="rounded=0;whiteSpace=wrap;html=1;" vertex="1" parent="1">
          <mxGeometry x="200" y="160" width="80" height="40" as="geometry" />
        </mxCell>
        <mxCell id="cf-76Xh3B5X5lazb63aW-30" style="edgeStyle=orthogonalEdgeStyle;rounded=0;orthogonalLoop=1;jettySize=auto;html=1;exitX=0;exitY=0.5;exitDx=0;exitDy=0;entryX=0;entryY=0.75;entryDx=0;entryDy=0;" edge="1" parent="1" source="cf-76Xh3B5X5lazb63aW-6" target="cf-76Xh3B5X5lazb63aW-24">
          <mxGeometry relative="1" as="geometry">
            <Array as="points">
              <mxPoint x="170" y="260" />
              <mxPoint x="170" y="590" />
            </Array>
          </mxGeometry>
        </mxCell>
        <mxCell id="cf-76Xh3B5X5lazb63aW-6" value="NewGame" style="rounded=0;whiteSpace=wrap;html=1;" vertex="1" parent="1">
          <mxGeometry x="200" y="240" width="80" height="40" as="geometry" />
        </mxCell>
        <mxCell id="cf-76Xh3B5X5lazb63aW-10" value="" style="endArrow=none;dashed=1;html=1;rounded=0;" edge="1" parent="1">
          <mxGeometry width="50" height="50" relative="1" as="geometry">
            <mxPoint x="40" y="140" as="sourcePoint" />
            <mxPoint x="800" y="140" as="targetPoint" />
          </mxGeometry>
        </mxCell>
        <mxCell id="cf-76Xh3B5X5lazb63aW-11" value="" style="endArrow=none;dashed=1;html=1;rounded=0;" edge="1" parent="1">
          <mxGeometry width="50" height="50" relative="1" as="geometry">
            <mxPoint x="40" y="540" as="sourcePoint" />
            <mxPoint x="800" y="540" as="targetPoint" />
          </mxGeometry>
        </mxCell>
        <mxCell id="cf-76Xh3B5X5lazb63aW-12" value="" style="endArrow=none;dashed=1;html=1;rounded=0;" edge="1" parent="1">
          <mxGeometry width="50" height="50" relative="1" as="geometry">
            <mxPoint x="40" y="700" as="sourcePoint" />
            <mxPoint x="800" y="700" as="targetPoint" />
          </mxGeometry>
        </mxCell>
        <mxCell id="cf-76Xh3B5X5lazb63aW-29" style="edgeStyle=orthogonalEdgeStyle;rounded=0;orthogonalLoop=1;jettySize=auto;html=1;exitX=0;exitY=0.5;exitDx=0;exitDy=0;entryX=0;entryY=0.5;entryDx=0;entryDy=0;" edge="1" parent="1" source="cf-76Xh3B5X5lazb63aW-13" target="cf-76Xh3B5X5lazb63aW-24">
          <mxGeometry relative="1" as="geometry" />
        </mxCell>
        <mxCell id="cf-76Xh3B5X5lazb63aW-13" value="LoadGame" style="rounded=0;whiteSpace=wrap;html=1;" vertex="1" parent="1">
          <mxGeometry x="200" y="320" width="80" height="40" as="geometry" />
        </mxCell>
        <mxCell id="cf-76Xh3B5X5lazb63aW-14" value="Setting" style="rounded=0;whiteSpace=wrap;html=1;" vertex="1" parent="1">
          <mxGeometry x="200" y="400" width="80" height="40" as="geometry" />
        </mxCell>
        <mxCell id="cf-76Xh3B5X5lazb63aW-28" style="edgeStyle=orthogonalEdgeStyle;rounded=0;orthogonalLoop=1;jettySize=auto;html=1;exitX=0;exitY=0.5;exitDx=0;exitDy=0;entryX=0;entryY=0.25;entryDx=0;entryDy=0;" edge="1" parent="1" source="cf-76Xh3B5X5lazb63aW-19" target="cf-76Xh3B5X5lazb63aW-24">
          <mxGeometry relative="1" as="geometry">
            <Array as="points">
              <mxPoint x="190" y="500" />
              <mxPoint x="190" y="570" />
            </Array>
          </mxGeometry>
        </mxCell>
        <mxCell id="cf-76Xh3B5X5lazb63aW-19" value="Online" style="rounded=0;whiteSpace=wrap;html=1;" vertex="1" parent="1">
          <mxGeometry x="200" y="480" width="80" height="40" as="geometry" />
        </mxCell>
        <mxCell id="cf-76Xh3B5X5lazb63aW-23" style="edgeStyle=orthogonalEdgeStyle;rounded=0;orthogonalLoop=1;jettySize=auto;html=1;exitX=1;exitY=0.75;exitDx=0;exitDy=0;startArrow=classic;startFill=1;entryX=1;entryY=0.5;entryDx=0;entryDy=0;" edge="1" parent="1" source="cf-76Xh3B5X5lazb63aW-5" target="cf-76Xh3B5X5lazb63aW-19">
          <mxGeometry relative="1" as="geometry">
            <mxPoint x="360" y="210" as="sourcePoint" />
            <mxPoint x="340" y="410" as="targetPoint" />
            <Array as="points">
              <mxPoint x="310" y="190" />
              <mxPoint x="310" y="500" />
            </Array>
          </mxGeometry>
        </mxCell>
        <mxCell id="cf-76Xh3B5X5lazb63aW-27" style="edgeStyle=orthogonalEdgeStyle;rounded=0;orthogonalLoop=1;jettySize=auto;html=1;exitX=0.5;exitY=1;exitDx=0;exitDy=0;startArrow=classic;startFill=1;" edge="1" parent="1" source="cf-76Xh3B5X5lazb63aW-24" target="cf-76Xh3B5X5lazb63aW-25">
          <mxGeometry relative="1" as="geometry" />
        </mxCell>
        <mxCell id="cf-76Xh3B5X5lazb63aW-24" value="InGame" style="rounded=0;whiteSpace=wrap;html=1;" vertex="1" parent="1">
          <mxGeometry x="200" y="560" width="80" height="40" as="geometry" />
        </mxCell>
        <mxCell id="cf-76Xh3B5X5lazb63aW-26" style="edgeStyle=orthogonalEdgeStyle;rounded=0;orthogonalLoop=1;jettySize=auto;html=1;exitX=1;exitY=0.5;exitDx=0;exitDy=0;entryX=1;entryY=0.25;entryDx=0;entryDy=0;" edge="1" parent="1" source="cf-76Xh3B5X5lazb63aW-25" target="cf-76Xh3B5X5lazb63aW-5">
          <mxGeometry relative="1" as="geometry">
            <Array as="points">
              <mxPoint x="320" y="660" />
              <mxPoint x="320" y="170" />
            </Array>
          </mxGeometry>
        </mxCell>
        <mxCell id="cf-76Xh3B5X5lazb63aW-25" value="Paused" style="rounded=0;whiteSpace=wrap;html=1;" vertex="1" parent="1">
          <mxGeometry x="200" y="640" width="80" height="40" as="geometry" />
        </mxCell>
      </root>
    </mxGraphModel>
  </diagram>
</mxfile>
